<svg xmlns="http://www.w3.org/2000/svg" viewBox="0 0 1024 1024" id="chatbot">
  <path fill="none" stroke="#666666" stroke-miterlimit="10" stroke-width="20" d="M 582.158 778.291 L 536.085 779.31 L 352.376 923.909 C 351.748 924.446 350.879 923.909 350.879 922.995 L 350.879 777.715 L 261.143 777.715 C 196.189 777.715 143.555 715.206 143.555 638.096 L 143.555 241.916 C 143.555 164.805 196.189 102.296 261.143 102.296 L 759.471 102.296 C 824.414 102.296 877.06 164.805 877.06 241.916 L 877.06 638.096 C 877.06 715.206 824.414 777.715 759.471 777.715 L 711.427 778.291 L 582.158 778.291 Z" style=""/>
  <circle cx="389.34" cy="448.2" r="61.34" fill="none" stroke="#666666" stroke-miterlimit="10" stroke-width="20" style="" transform="matrix(1.10091, 0, 0, 1.30718, -53.3651, -273.701)"/>
  <circle cx="635.34" cy="448.2" r="61.34" fill="none" stroke="#666666" stroke-miterlimit="10" stroke-width="20" style="" transform="matrix(1.10091, 0, 0, 1.30718, -53.3651, -273.701)"/>
  <path fill="none" stroke="#666666" stroke-miterlimit="10" stroke-width="20" d="M 879.339 555.639 L 879.339 331.693 L 930.509 331.693 C 951.855 331.693 969.161 352.242 969.161 377.588 L 969.161 509.757 C 969.161 535.103 951.855 555.652 930.509 555.652 L 879.339 555.652 L 879.339 555.639 Z M 51.442 509.757 L 51.442 377.588 C 51.442 352.242 68.748 331.693 90.094 331.693 L 141.265 331.693 L 141.265 555.652 L 90.094 555.652 C 68.748 555.639 51.442 535.089 51.442 509.757 Z M 653.266 518.893 C 643.831 599.299 582.225 661.376 507.594 661.376 C 432.985 661.376 371.356 599.299 361.921 518.893 L 653.266 518.893 Z" style=""/>
</svg>
